<?xml version="1.0" standalone="no"?>
<!DOCTYPE svg PUBLIC "-//W3C//DTD SVG 20010904//EN"
 "http://www.w3.org/TR/2001/REC-SVG-20010904/DTD/svg10.dtd">
<svg version="1.0" xmlns="http://www.w3.org/2000/svg"
 width="792.000000pt" height="792.000000pt" viewBox="0 0 792.000000 792.000000"
 preserveAspectRatio="xMidYMid meet">
<metadata>
Created by potrace 1.11, written by Peter Selinger 2001-2013
</metadata>
<g transform="translate(0.000000,792.000000) scale(0.100000,-0.100000)"
fill="#000000" stroke="none">
<path d="M2328 5973 c-2 -5 -3 -156 -3 -338 l1 -330 555 -2 c305 -1 573 -2
596 -3 l41 0 1 -1587 c0 -874 0 -1607 1 -1630 l0 -43 405 0 405 0 0 1630 0
1630 83 0 c45 1 304 1 575 1 l492 1 0 339 0 339 -1574 0 c-866 0 -1576 -3
-1578 -7z"/>
</g>
</svg>
